<svg width="360" height="228" viewBox="0 0 360 228" fill="none" xmlns="http://www.w3.org/2000/svg">
<g clip-path="url(#clip0)">
<path d="M174.172 201.583C96.6864 196.664 4.28141 146.579 8.98588 95.0081C13.6904 43.4372 103.186 -4.5711 180.671 0.347977C258.156 5.26705 302.76 101.645 298.055 153.215C293.351 204.786 251.657 206.503 174.172 201.583Z" fill="#4B4A4A"/>
<path d="M180.67 209.867C270.001 209.867 342.419 206.166 342.419 201.6C342.419 197.034 270.001 193.333 180.67 193.333C91.3391 193.333 18.9218 197.034 18.9218 201.6C18.9218 206.166 91.3391 209.867 180.67 209.867Z" fill="#3F3D56"/>
<path opacity="0.1" d="M180.67 206.933C256.761 206.933 318.444 204.486 318.444 201.467C318.444 198.448 256.761 196 180.67 196C104.58 196 42.8964 198.448 42.8964 201.467C42.8964 204.486 104.58 206.933 180.67 206.933Z" fill="black"/>
<path d="M67.83 228C105.291 228 135.66 225.791 135.66 223.067C135.66 220.342 105.291 218.133 67.83 218.133C30.3685 218.133 0 220.342 0 223.067C0 225.791 30.3685 228 67.83 228Z" fill="#3F3D56"/>
<path opacity="0.1" d="M67.83 226.249C99.7389 226.249 125.606 224.789 125.606 222.987C125.606 221.185 99.7389 219.725 67.83 219.725C35.9211 219.725 10.0539 221.185 10.0539 222.987C10.0539 224.789 35.9211 226.249 67.83 226.249Z" fill="black"/>
<path d="M303.1 43.2H62.7154V200.533H303.1V43.2Z" fill="#3F3D56"/>
<path d="M180.173 64.7011H120.87C120.776 64.7013 120.682 64.6859 120.594 64.6558C120.507 64.6257 120.427 64.5815 120.36 64.5257C120.293 64.47 120.24 64.4037 120.204 64.3308C120.168 64.2579 120.149 64.1797 120.149 64.1007C120.149 64.0218 120.168 63.9436 120.204 63.8707C120.24 63.7978 120.293 63.7315 120.36 63.6758C120.427 63.62 120.507 63.5758 120.594 63.5457C120.682 63.5156 120.776 63.5002 120.87 63.5004H180.173C180.364 63.5007 180.546 63.5641 180.681 63.6767C180.816 63.7892 180.891 63.9417 180.891 64.1007C180.891 64.2598 180.816 64.4123 180.681 64.5248C180.546 64.6374 180.364 64.7008 180.173 64.7011V64.7011Z" fill="#F2F2F2"/>
<path d="M245.089 71.3053H151.817C151.626 71.3053 151.443 71.2421 151.308 71.1295C151.173 71.0169 151.097 70.8642 151.097 70.7049C151.097 70.5457 151.173 70.393 151.308 70.2804C151.443 70.1678 151.626 70.1046 151.817 70.1046H245.089C245.184 70.1046 245.278 70.1201 245.365 70.1503C245.452 70.1804 245.532 70.2247 245.598 70.2804C245.665 70.3362 245.718 70.4023 245.754 70.4752C245.791 70.548 245.809 70.6261 245.809 70.7049C245.809 70.7838 245.791 70.8619 245.754 70.9347C245.718 71.0075 245.665 71.0737 245.598 71.1295C245.532 71.1852 245.452 71.2295 245.365 71.2596C245.278 71.2898 245.184 71.3053 245.089 71.3053V71.3053Z" fill="#F2F2F2"/>
<path d="M180.461 77.9095H121.158C120.967 77.9095 120.784 77.8462 120.649 77.7336C120.514 77.621 120.438 77.4683 120.438 77.3091C120.438 77.1499 120.514 76.9972 120.649 76.8846C120.784 76.772 120.967 76.7087 121.158 76.7087H180.461C180.652 76.7087 180.835 76.772 180.97 76.8846C181.105 76.9972 181.181 77.1499 181.181 77.3091C181.181 77.4683 181.105 77.621 180.97 77.7336C180.835 77.8462 180.652 77.9095 180.461 77.9095V77.9095Z" fill="#F2F2F2"/>
<path d="M245.089 78.0296H185.787C185.596 78.0296 185.413 77.9663 185.278 77.8537C185.143 77.7411 185.067 77.5884 185.067 77.4292C185.067 77.2699 185.143 77.1172 185.278 77.0046C185.413 76.892 185.596 76.8288 185.787 76.8288H245.089C245.28 76.8288 245.463 76.892 245.598 77.0046C245.733 77.1172 245.809 77.2699 245.809 77.4292C245.809 77.5884 245.733 77.7411 245.598 77.8537C245.463 77.9663 245.28 78.0296 245.089 78.0296V78.0296Z" fill="#F2F2F2"/>
<path d="M180.605 84.5137H121.302C121.111 84.5137 120.928 84.4504 120.793 84.3378C120.658 84.2252 120.582 84.0725 120.582 83.9133C120.582 83.7541 120.658 83.6014 120.793 83.4888C120.928 83.3762 121.111 83.3129 121.302 83.3129H180.605C180.796 83.3129 180.979 83.3762 181.114 83.4888C181.249 83.6014 181.325 83.7541 181.325 83.9133C181.325 84.0725 181.249 84.2252 181.114 84.3378C180.979 84.4504 180.796 84.5137 180.605 84.5137V84.5137Z" fill="#F2F2F2"/>
<path d="M180.749 91.1179H121.446C121.255 91.1179 121.072 91.0546 120.937 90.942C120.802 90.8294 120.726 90.6767 120.726 90.5175C120.726 90.3582 120.802 90.2055 120.937 90.0929C121.072 89.9803 121.255 89.9171 121.446 89.9171H180.749C180.94 89.9171 181.123 89.9803 181.258 90.0929C181.393 90.2055 181.468 90.3582 181.468 90.5175C181.468 90.6767 181.393 90.8294 181.258 90.942C181.123 91.0546 180.94 91.1179 180.749 91.1179V91.1179Z" fill="#F2F2F2"/>
<path d="M207.665 64.8212H190.681C190.49 64.8212 190.307 64.7579 190.172 64.6453C190.037 64.5327 189.961 64.38 189.961 64.2208C189.961 64.0616 190.037 63.9089 190.172 63.7963C190.307 63.6837 190.49 63.6204 190.681 63.6204H207.665C207.856 63.6204 208.039 63.6837 208.174 63.7963C208.309 63.9089 208.385 64.0616 208.385 64.2208C208.385 64.38 208.309 64.5327 208.174 64.6453C208.039 64.7579 207.856 64.8212 207.665 64.8212V64.8212Z" fill="#F2F2F2"/>
<path d="M207.665 84.5137H190.681C190.49 84.5137 190.307 84.4504 190.172 84.3378C190.037 84.2252 189.961 84.0725 189.961 83.9133C189.961 83.7541 190.037 83.6014 190.172 83.4888C190.307 83.3762 190.49 83.3129 190.681 83.3129H207.665C207.856 83.3129 208.039 83.3762 208.174 83.4888C208.309 83.6014 208.385 83.7541 208.385 83.9133C208.385 84.0725 208.309 84.2252 208.174 84.3378C208.039 84.4504 207.856 84.5137 207.665 84.5137V84.5137Z" fill="#F2F2F2"/>
<path d="M207.665 90.9978H190.681C190.586 90.9979 190.492 90.9825 190.405 90.9524C190.317 90.9223 190.238 90.8781 190.171 90.8224C190.104 90.7666 190.051 90.7004 190.014 90.6274C189.978 90.5545 189.959 90.4763 189.959 90.3974C189.959 90.3184 189.978 90.2403 190.014 90.1673C190.051 90.0944 190.104 90.0282 190.171 89.9724C190.238 89.9166 190.317 89.8724 190.405 89.8423C190.492 89.8122 190.586 89.7968 190.681 89.797H207.665C207.76 89.7968 207.854 89.8122 207.941 89.8423C208.029 89.8724 208.108 89.9166 208.175 89.9724C208.242 90.0282 208.295 90.0944 208.332 90.1673C208.368 90.2403 208.387 90.3184 208.387 90.3974C208.387 90.4763 208.368 90.5545 208.332 90.6274C208.295 90.7004 208.242 90.7666 208.175 90.8224C208.108 90.8781 208.029 90.9223 207.941 90.9524C207.854 90.9825 207.76 90.9979 207.665 90.9978V90.9978Z" fill="#F2F2F2"/>
<path d="M236.165 90.9978H219.18C218.99 90.9974 218.807 90.934 218.673 90.8215C218.538 90.7089 218.462 90.5564 218.462 90.3974C218.462 90.2384 218.538 90.0859 218.673 89.9733C218.807 89.8607 218.99 89.7973 219.18 89.797H236.165C236.26 89.7968 236.354 89.8122 236.441 89.8423C236.529 89.8724 236.608 89.9166 236.675 89.9724C236.742 90.0282 236.795 90.0944 236.831 90.1673C236.868 90.2403 236.886 90.3184 236.886 90.3974C236.886 90.4763 236.868 90.5545 236.831 90.6274C236.795 90.7004 236.742 90.7666 236.675 90.8224C236.608 90.8781 236.529 90.9223 236.441 90.9524C236.354 90.9825 236.26 90.9979 236.165 90.9978V90.9978Z" fill="#F2F2F2"/>
<path d="M137.711 71.3053H120.726C120.535 71.3053 120.352 71.2421 120.217 71.1295C120.082 71.0169 120.007 70.8642 120.007 70.7049C120.007 70.5457 120.082 70.393 120.217 70.2804C120.352 70.1678 120.535 70.1046 120.726 70.1046H137.711C137.902 70.1046 138.085 70.1678 138.22 70.2804C138.355 70.393 138.431 70.5457 138.431 70.7049C138.431 70.8642 138.355 71.0169 138.22 71.1295C138.085 71.2421 137.902 71.3053 137.711 71.3053V71.3053Z" fill="#F2F2F2"/>
<path d="M180.245 161.963H120.942C120.751 161.963 120.568 161.9 120.433 161.787C120.298 161.674 120.223 161.522 120.223 161.362C120.223 161.203 120.298 161.051 120.433 160.938C120.568 160.825 120.751 160.762 120.942 160.762H180.245C180.436 160.762 180.619 160.825 180.754 160.938C180.889 161.051 180.965 161.203 180.965 161.362C180.965 161.522 180.889 161.674 180.754 161.787C180.619 161.9 180.436 161.963 180.245 161.963Z" fill="#F2F2F2"/>
<path d="M179.957 175.171H120.654C120.464 175.171 120.28 175.108 120.145 174.995C120.011 174.883 119.935 174.73 119.935 174.571C119.935 174.412 120.011 174.259 120.145 174.146C120.28 174.034 120.464 173.97 120.654 173.97H179.957C180.148 173.97 180.331 174.034 180.466 174.146C180.601 174.259 180.677 174.412 180.677 174.571C180.677 174.73 180.601 174.883 180.466 174.995C180.331 175.108 180.148 175.171 179.957 175.171Z" fill="#F2F2F2"/>
<path d="M180.101 181.775H120.798C120.704 181.776 120.61 181.76 120.522 181.73C120.435 181.7 120.355 181.656 120.288 181.6C120.221 181.544 120.168 181.478 120.132 181.405C120.096 181.332 120.077 181.254 120.077 181.175C120.077 181.096 120.096 181.018 120.132 180.945C120.168 180.872 120.221 180.806 120.288 180.75C120.355 180.694 120.435 180.65 120.522 180.62C120.61 180.59 120.704 180.574 120.798 180.575H180.101C180.196 180.574 180.289 180.59 180.377 180.62C180.464 180.65 180.544 180.694 180.611 180.75C180.678 180.806 180.731 180.872 180.767 180.945C180.804 181.018 180.822 181.096 180.822 181.175C180.822 181.254 180.804 181.332 180.767 181.405C180.731 181.478 180.678 181.544 180.611 181.6C180.544 181.656 180.464 181.7 180.377 181.73C180.289 181.76 180.196 181.776 180.101 181.775V181.775Z" fill="#F2F2F2"/>
<path d="M205.434 175.291H188.45C188.259 175.291 188.076 175.228 187.941 175.115C187.806 175.003 187.73 174.85 187.73 174.691C187.73 174.532 187.806 174.379 187.941 174.266C188.076 174.154 188.259 174.091 188.45 174.091H205.434C205.625 174.091 205.808 174.154 205.943 174.266C206.078 174.379 206.154 174.532 206.154 174.691C206.154 174.85 206.078 175.003 205.943 175.115C205.808 175.228 205.625 175.291 205.434 175.291Z" fill="#F2F2F2"/>
<path d="M205.434 181.775H188.45C188.259 181.775 188.076 181.712 187.941 181.6C187.806 181.487 187.73 181.334 187.73 181.175C187.73 181.016 187.806 180.863 187.941 180.75C188.076 180.638 188.259 180.575 188.45 180.575H205.434C205.625 180.575 205.808 180.638 205.943 180.75C206.078 180.863 206.154 181.016 206.154 181.175C206.154 181.334 206.078 181.487 205.943 181.6C205.808 181.712 205.625 181.775 205.434 181.775V181.775Z" fill="#F2F2F2"/>
<path d="M233.934 175.291H216.949C216.759 175.291 216.575 175.228 216.44 175.115C216.306 175.003 216.23 174.85 216.23 174.691C216.23 174.532 216.306 174.379 216.44 174.266C216.575 174.154 216.759 174.091 216.949 174.091H233.934C234.125 174.091 234.308 174.154 234.443 174.266C234.578 174.379 234.654 174.532 234.654 174.691C234.654 174.85 234.578 175.003 234.443 175.115C234.308 175.228 234.125 175.291 233.934 175.291V175.291Z" fill="#F2F2F2"/>
<path d="M245.161 168.567H151.889C151.698 168.567 151.515 168.504 151.38 168.391C151.245 168.279 151.169 168.126 151.169 167.967C151.169 167.807 151.245 167.655 151.38 167.542C151.515 167.429 151.698 167.366 151.889 167.366H245.161C245.352 167.366 245.535 167.429 245.67 167.542C245.805 167.655 245.881 167.807 245.881 167.967C245.881 168.126 245.805 168.279 245.67 168.391C245.535 168.504 245.352 168.567 245.161 168.567V168.567Z" fill="#F2F2F2"/>
<path d="M137.783 168.567H120.798C120.607 168.567 120.424 168.504 120.289 168.391C120.154 168.279 120.079 168.126 120.079 167.967C120.079 167.807 120.154 167.655 120.289 167.542C120.424 167.429 120.607 167.366 120.798 167.366H137.783C137.974 167.366 138.157 167.429 138.292 167.542C138.427 167.655 138.503 167.807 138.503 167.967C138.503 168.126 138.427 168.279 138.292 168.391C138.157 168.504 137.974 168.567 137.783 168.567V168.567Z" fill="#F2F2F2"/>
<path d="M245.161 188.5H151.889C151.794 188.5 151.701 188.484 151.613 188.454C151.526 188.424 151.446 188.38 151.379 188.324C151.312 188.268 151.259 188.202 151.223 188.129C151.187 188.056 151.168 187.978 151.168 187.899C151.168 187.82 151.187 187.742 151.223 187.669C151.259 187.596 151.312 187.53 151.379 187.474C151.446 187.419 151.526 187.374 151.613 187.344C151.701 187.314 151.794 187.299 151.889 187.299H245.161C245.352 187.299 245.535 187.362 245.67 187.475C245.805 187.587 245.881 187.74 245.881 187.899C245.881 188.059 245.805 188.211 245.67 188.324C245.535 188.436 245.352 188.5 245.161 188.5V188.5Z" fill="#F2F2F2"/>
<path d="M137.783 188.5H120.798C120.704 188.5 120.61 188.484 120.522 188.454C120.435 188.424 120.355 188.38 120.288 188.324C120.221 188.268 120.168 188.202 120.132 188.129C120.096 188.056 120.077 187.978 120.077 187.899C120.077 187.82 120.096 187.742 120.132 187.669C120.168 187.596 120.221 187.53 120.288 187.474C120.355 187.419 120.435 187.374 120.522 187.344C120.61 187.314 120.704 187.299 120.798 187.299H137.783C137.878 187.299 137.971 187.314 138.059 187.344C138.146 187.374 138.226 187.419 138.293 187.474C138.36 187.53 138.413 187.596 138.449 187.669C138.486 187.742 138.504 187.82 138.504 187.899C138.504 187.978 138.486 188.056 138.449 188.129C138.413 188.202 138.36 188.268 138.293 188.324C138.226 188.38 138.146 188.424 138.059 188.454C137.971 188.484 137.878 188.5 137.783 188.5Z" fill="#F2F2F2"/>
<path d="M165.923 106.968L142.893 125.94L165.923 144.912L171.105 140.589L153.688 126.06L171.249 111.411L165.923 106.968Z" fill="#242424"/>
<path d="M199.893 106.968L222.923 125.94L199.893 144.912L194.711 140.589L212.128 126.06L194.567 111.411L199.893 106.968Z" fill="#242424"/>
<path d="M69.1086 49.6C70.6975 49.6 71.9856 48.5255 71.9856 47.2C71.9856 45.8745 70.6975 44.8 69.1086 44.8C67.5197 44.8 66.2317 45.8745 66.2317 47.2C66.2317 48.5255 67.5197 49.6 69.1086 49.6Z" fill="#242424"/>
<path d="M76.7805 49.6C78.3694 49.6 79.6574 48.5255 79.6574 47.2C79.6574 45.8745 78.3694 44.8 76.7805 44.8C75.1916 44.8 73.9035 45.8745 73.9035 47.2C73.9035 48.5255 75.1916 49.6 76.7805 49.6Z" fill="#242424"/>
<path d="M84.4523 49.6C86.0412 49.6 87.3293 48.5255 87.3293 47.2C87.3293 45.8745 86.0412 44.8 84.4523 44.8C82.8634 44.8 81.5754 45.8745 81.5754 47.2C81.5754 48.5255 82.8634 49.6 84.4523 49.6Z" fill="#242424"/>
<path opacity="0.1" d="M303.1 51.2H62.7154V52H303.1V51.2Z" fill="black"/>
<path d="M360 161.988C360 178.993 347.881 184.931 332.932 184.931C317.983 184.931 305.865 178.993 305.865 161.988C305.865 144.982 332.932 123.348 332.932 123.348C332.932 123.348 360 144.982 360 161.988Z" fill="#565656"/>
<path d="M331.946 182.33L332.224 168.097L343.76 150.49L332.267 165.865L332.392 159.465L340.343 146.727L332.425 157.772L332.649 146.262L341.163 136.121L332.684 144.453L332.824 123.348L331.944 151.287L332.016 150.134L323.36 139.081L331.877 152.347L331.071 165.201L331.047 164.859L321.067 153.227L331.017 166.065L330.916 167.672L330.898 167.697L330.906 167.828L328.859 200.441H331.593L331.921 183.596L341.847 170.79L331.946 182.33Z" fill="#1D1D1D"/>
<path d="M39.1973 200.291C38.3669 200.677 37.4908 200.99 36.5831 201.225C34.9596 201.595 33.2244 201.459 31.5845 201.775C30.9131 201.904 30.1824 202.175 29.9689 202.721C29.8123 203.122 29.9827 203.555 30.1458 203.954C31.9578 208.386 33.05 213.092 35.9397 217.106C37.1542 218.793 38.6615 220.319 40.4126 221.636C41.0696 222.13 41.8141 222.614 42.6936 222.691C43.0989 222.727 43.5083 222.673 43.8805 222.534C44.2528 222.396 44.5746 222.178 44.8136 221.902C45.0526 221.627 45.2003 221.304 45.2417 220.966C45.2831 220.627 45.2169 220.286 45.0496 219.976C44.7905 219.496 44.3089 219.124 43.9983 218.665C43.6614 218.081 43.4639 217.448 43.4166 216.801C43.1312 214.905 42.8561 212.924 43.6434 211.13C44.1715 209.927 45.1401 208.901 45.947 207.811C46.754 206.721 47.4244 205.472 47.2448 204.199C47.1223 203.331 46.6145 202.536 46.0781 201.785C45.5406 201.032 44.4783 199.009 43.3984 198.758C42.2775 198.497 40.1749 199.873 39.1973 200.291Z" fill="#2F2E41"/>
<path d="M68.7452 215.6C68.7621 216.029 68.6904 216.457 68.5332 216.865C68.1951 217.61 67.3565 218.12 66.9233 218.83C66.3207 219.817 66.5938 221.01 66.993 222.066C67.2433 222.728 67.5716 223.417 68.2437 223.827C68.8185 224.124 69.4721 224.298 70.1469 224.335C75.9124 225.001 81.7691 224.619 87.5871 224.758C88.6475 224.784 89.7702 224.815 90.6959 224.382C91.6216 223.95 92.1938 222.863 91.5642 222.151C90.9989 221.511 89.8811 221.517 88.9296 221.48C86.4518 221.375 84.0921 220.564 82.2445 219.182C81.8802 218.923 81.5641 218.619 81.3068 218.282C81.109 217.983 80.9448 217.669 80.8164 217.344C80.0008 215.501 79.0305 213.708 77.9127 211.979C77.5998 211.495 77.2456 210.991 76.6641 210.732C76.2385 210.57 75.7765 210.486 75.309 210.485C73.8589 210.407 70.1039 209.995 68.9826 210.936C67.9465 211.805 68.7681 214.496 68.7452 215.6Z" fill="#2F2E41"/>
<path d="M77.6682 108.185C82.7836 108.185 86.9304 104.726 86.9304 100.459C86.9304 96.1914 82.7836 92.7321 77.6682 92.7321C72.5529 92.7321 68.4061 96.1914 68.4061 100.459C68.4061 104.726 72.5529 108.185 77.6682 108.185Z" fill="#FBBEBE"/>
<path d="M69.3043 106.839C68.7534 108.069 67.8189 109.225 66.4592 109.887L79.2695 112.067C78.8048 110.507 78.7436 108.883 79.0899 107.302C79.217 106.919 79.2432 106.518 79.1665 106.126C78.9257 105.351 77.8794 104.977 76.9433 104.799C74.6053 104.355 72.5377 104.116 70.3651 103.255C69.7009 104.203 69.7939 105.745 69.3043 106.839Z" fill="#FBBEBE"/>
<path d="M66.3522 106.994C67.7303 106.474 69.2317 106.221 70.7438 106.253C72.2559 106.286 73.7395 106.605 75.0831 107.184C76.7255 107.906 78.0853 108.996 79.4214 110.071C80.6529 111.062 81.9667 112.197 82.0541 113.623C82.0964 114.313 81.838 114.989 81.7076 115.672C81.4731 117.084 81.7711 118.523 82.5604 119.787C83.3497 121.052 84.5911 122.081 86.1125 122.73C87.1302 124.145 87.3402 125.858 87.3558 127.507C87.4149 133.757 85.0513 140.084 86.7387 146.173C87.1349 147.603 87.7494 148.987 88.0916 150.427C88.5349 152.291 88.513 154.208 88.745 156.099C88.9965 158.146 89.5454 160.16 90.3795 162.097C89.822 162.837 88.6618 163.121 87.6169 163.061C86.572 163.001 85.595 162.623 84.6626 162.224C80.1479 160.297 76.0128 157.756 71.3369 156.118C68.2433 155.034 64.9477 154.359 61.9466 153.108C58.9455 151.856 56.1544 149.87 55.2367 147.178C54.84 146.014 54.8155 144.787 54.7939 143.577C54.7027 138.48 54.6179 133.327 55.9479 128.352C57.1207 123.964 59.3815 119.767 59.8747 115.29C60.0352 113.833 60.0387 112.273 61.0146 111.057C62.394 109.339 65.3724 108.894 66.3522 106.994Z" fill="#2F2E41"/>
<path d="M72.4005 100.568C72.9462 99.974 73.9989 99.893 74.8708 100.069C75.7427 100.244 76.5466 100.619 77.4272 100.762C77.6274 100.809 77.8372 100.821 78.0432 100.797C78.2493 100.773 78.447 100.713 78.6238 100.621C78.9316 100.369 79.1157 100.029 79.1402 99.6694C79.4486 98.1384 79.5207 96.5808 79.3546 95.0346C79.3088 94.8176 79.3262 94.5947 79.4054 94.3846C79.6234 93.9463 80.2885 93.842 80.8317 93.7014C81.728 93.4487 82.4978 92.9541 83.0195 92.2958C83.5412 91.6374 83.7852 90.8529 83.7128 90.066C83.6992 89.6885 83.5092 89.3305 83.1832 89.0685C82.8076 88.8131 82.2817 88.7974 81.7972 88.7942C79.3074 88.7775 76.8176 88.778 74.3278 88.7957C73.4063 88.8022 72.4385 88.8211 71.6396 89.2044C71.049 89.4878 70.6098 89.9439 70.0795 90.3008C68.6966 91.2318 66.8261 91.4212 65.1436 91.8983C64.3223 92.0934 63.5765 92.4645 62.9803 92.9745C62.4208 93.5077 62.1518 94.3007 62.5032 94.9459C62.6836 95.2148 62.8851 95.4735 63.1063 95.7202C64.0987 97.044 63.4381 98.7611 63.5863 100.317C63.7713 102.261 67.2192 105.414 69.5571 105.874C73.3316 106.616 71.151 101.844 72.4005 100.568Z" fill="#2F2E41"/>
<path d="M67.1717 185.782C67.4099 187.201 67.7154 188.625 67.6337 190.057C67.5197 192.055 66.6558 193.98 66.4961 195.976C66.3768 197.467 66.6527 198.974 66.4045 200.454C66.2456 201.402 65.8752 202.315 65.6459 203.252C65.2828 204.78 65.293 206.353 65.6761 207.877C66.0591 209.402 66.807 210.846 67.8749 212.123C68.0318 212.342 68.2549 212.522 68.5217 212.646C68.7777 212.725 69.0516 212.755 69.3234 212.735C72.0192 212.689 74.7078 212.485 77.3693 212.125C77.5642 212.118 77.7488 212.05 77.886 211.934C77.946 211.858 77.9844 211.771 77.9982 211.68C78.4917 209.564 77.3663 207.442 77.0801 205.299C76.7746 203.011 77.4326 200.719 78.0858 198.482C78.382 197.379 78.752 196.29 79.1942 195.221C79.5099 194.502 79.8912 193.802 80.1649 193.071C80.5525 191.922 80.7885 190.742 80.8688 189.55C81.0588 187.67 81.1595 185.786 81.1708 183.897C81.2353 182.108 81.0568 180.318 80.6385 178.561C80.0382 176.338 78.8088 174.273 77.5903 172.233C76.9387 172.364 76.327 172.606 75.7944 172.945C74.2241 173.794 72.5845 174.549 70.8877 175.207C69.7476 175.649 67.5242 175.962 66.8006 176.883C66.0871 177.791 66.5475 179.643 66.602 180.644C66.6955 182.363 66.8855 184.076 67.1717 185.782Z" fill="#2F2E41"/>
<path opacity="0.1" d="M67.1717 185.782C67.4099 187.201 67.7154 188.625 67.6337 190.057C67.5197 192.055 66.6558 193.98 66.4961 195.976C66.3768 197.467 66.6527 198.974 66.4045 200.454C66.2456 201.402 65.8752 202.315 65.6459 203.252C65.2828 204.78 65.293 206.353 65.6761 207.877C66.0591 209.402 66.807 210.846 67.8749 212.123C68.0318 212.342 68.2549 212.522 68.5217 212.646C68.7777 212.725 69.0516 212.755 69.3234 212.735C72.0192 212.689 74.7078 212.485 77.3693 212.125C77.5642 212.118 77.7488 212.05 77.886 211.934C77.946 211.858 77.9844 211.771 77.9982 211.68C78.4917 209.564 77.3663 207.442 77.0801 205.299C76.7746 203.011 77.4326 200.719 78.0858 198.482C78.382 197.379 78.752 196.29 79.1942 195.221C79.5099 194.502 79.8912 193.802 80.1649 193.071C80.5525 191.922 80.7885 190.742 80.8688 189.55C81.0588 187.67 81.1595 185.786 81.1708 183.897C81.2353 182.108 81.0568 180.318 80.6385 178.561C80.0382 176.338 78.8088 174.273 77.5903 172.233C76.9387 172.364 76.327 172.606 75.7944 172.945C74.2241 173.794 72.5845 174.549 70.8877 175.207C69.7476 175.649 67.5242 175.962 66.8006 176.883C66.0871 177.791 66.5475 179.643 66.602 180.644C66.6955 182.363 66.8855 184.076 67.1717 185.782Z" fill="black"/>
<path d="M54.6496 155.471C53.4196 158.234 55.2276 161.219 56.7984 163.859C60.6682 170.362 63.3555 177.301 66.0284 184.21C66.2286 184.727 66.4287 185.292 66.2055 185.803C66.0127 186.166 65.6998 186.476 65.3035 186.696C63.4605 187.863 61.1137 188.279 58.9183 188.89C56.7966 189.481 54.7645 190.276 52.8631 191.258C51.2722 192.081 49.7819 193.03 48.2945 193.978L43.5597 196.994C43.2532 197.167 42.9853 197.383 42.7683 197.633C42.3116 198.231 42.4987 199.011 42.7261 199.694C43.3282 201.502 44.1034 203.267 45.0443 204.972C45.1991 205.346 45.4938 205.668 45.885 205.891C46.624 206.222 47.528 205.783 48.0923 205.265C48.6566 204.747 49.1448 204.103 49.9403 203.881C50.7349 203.658 51.6094 203.927 52.4393 203.83C53.7814 203.673 54.6725 202.642 55.64 201.85C59.5927 198.615 66.192 198.849 70.5401 195.989C71.1687 195.52 71.8341 195.086 72.5319 194.691C73.267 194.329 74.1006 194.13 74.8633 193.809C77.1829 192.835 78.6412 190.82 79.4224 188.754C80.2036 186.688 80.4264 184.507 80.9878 182.391C81.278 181.298 81.66 180.216 81.7891 179.101C81.8721 178.064 81.845 177.023 81.7082 175.99L80.1392 159.799C80.0115 158.481 79.8835 157.161 79.6355 155.855C74.9759 155.994 70.3197 156.151 65.6575 156.197C61.9476 156.233 58.1696 156.449 54.6496 155.471Z" fill="#2F2E41"/>
<path d="M52.9366 159.259C53.5687 160.107 55.1072 160.089 56.1666 159.625C57.226 159.16 58.049 158.378 59.1109 157.918C60.5378 157.298 62.2263 157.321 63.8343 157.359C66.3799 157.419 68.9568 157.483 71.406 158.065C73.9393 158.667 76.4054 159.826 79.0248 159.595C79.4806 159.555 79.979 159.445 80.2271 159.124C80.3725 158.891 80.4408 158.63 80.4252 158.368L80.5108 156.459C80.5633 156.128 80.5 155.793 80.3286 155.492C80.1088 155.242 79.8075 155.049 79.4605 154.937C75.7321 153.432 71.4803 153.151 67.3405 153.033C65.2361 152.973 63.1309 152.948 61.0248 152.959C59.2376 152.968 57.092 152.752 55.3544 153.151C53.0225 153.685 51.7536 157.672 52.9366 159.259Z" fill="#2F2E41"/>
<path d="M76.3476 109.26C71.4625 109.224 67.0355 106.534 62.1509 106.469C61.5607 106.435 60.9694 106.52 60.4271 106.717C59.7464 107.003 59.2989 107.556 58.7818 108.023C57.3375 109.328 55.246 110.024 53.7622 111.298C52.3709 112.492 51.5972 114.271 52.1464 115.872C52.6957 117.473 54.7688 118.701 56.7109 118.316C57.4933 116.203 59.1082 114.373 61.2938 113.122C62.431 112.513 63.6295 111.988 64.8757 111.553C67.0711 110.723 69.5261 109.878 71.8181 110.5C72.6633 110.766 73.4604 111.128 74.1865 111.577L78.0077 113.718C77.5624 112.253 77.1621 110.61 76.3476 109.26Z" fill="#242424"/>
<path d="M56.1482 116.9C55.4995 117.575 56.434 118.553 56.2909 119.41C56.1959 119.979 55.6343 120.414 55.4004 120.955C55.1581 121.515 55.2866 122.135 55.1947 122.726C55.1025 123.155 54.9661 123.577 54.7871 123.987C54.3755 125.211 54.0883 126.463 53.9283 127.727L53.0733 133.054C52.9249 133.856 52.8346 134.664 52.8029 135.475C52.846 136.081 52.7974 136.689 52.6583 137.285C52.469 137.867 52.0497 138.376 51.7677 138.931C51.4857 139.487 51.3549 140.159 51.7359 140.671C50.46 141.558 50.0807 143.299 50.9728 144.467C51.1426 144.649 51.2755 144.853 51.366 145.071C51.4153 145.376 51.3551 145.686 51.1929 145.962L50.3283 147.884C50.107 148.376 50.037 149.125 50.6522 149.237C50.1426 149.678 49.7455 150.202 49.4851 150.775C49.3587 151.062 49.3209 151.372 49.3753 151.675C49.4296 151.978 49.5742 152.265 49.7959 152.51C50.0107 152.667 50.1936 152.852 50.3376 153.058C50.4221 153.345 50.4003 153.646 50.2749 153.923C50.1457 154.342 50.1207 154.78 50.2017 155.208C50.2827 155.636 50.4679 156.046 50.7458 156.412C51.0338 156.773 51.4417 157.056 51.9196 157.227C52.3975 157.398 52.9247 157.449 53.4369 157.374C55.1664 157.048 56.7205 156.535 58.4643 156.802C62.2191 157.376 65.9859 157.954 69.6225 158.922C73.7729 160.028 77.7917 161.649 82.1295 161.989C82.4149 162.038 82.7117 161.999 82.9659 161.881C83.1869 161.706 83.3244 161.47 83.3527 161.217C83.7996 159.469 84.2465 157.721 84.6934 155.973C85.2336 154.036 85.645 152.075 85.9257 150.099C86.0783 148.824 86.1219 147.542 86.1653 146.261L86.5108 136.066C86.6726 134.564 86.4324 133.05 85.8075 131.634L83.82 126.341C82.6858 123.321 80.0839 120.642 79.1575 117.573C78.5712 115.63 78.1381 113.546 76.5658 112.031C74.3242 109.873 70.4459 109.537 67.0515 109.908C65.518 110.076 63.9713 110.365 62.6449 111.029C61.1111 111.796 59.9811 113.004 58.8879 114.185C57.987 115.158 57.07 115.94 56.1482 116.9Z" fill="#242424"/>
<path d="M64.0741 146.886C64.3538 147.892 64.9412 148.82 65.3007 149.808C65.903 151.464 65.8519 153.247 66.4531 154.903C66.7054 155.598 67.071 156.265 67.2521 156.976C67.6744 158.632 67.0578 160.345 66.292 161.913C65.5262 163.481 64.5935 165.027 64.3449 166.708C64.1698 167.891 64.4213 169.228 65.5149 169.996C66.6502 170.793 68.3001 170.739 69.7788 170.633C70.3097 170.621 70.8337 170.53 71.3264 170.364C72.4572 169.918 72.9335 168.802 73.1979 167.782C74.0837 164.363 73.8307 160.82 73.5732 157.329L72.9 148.2C72.7704 146.443 72.6315 144.649 71.9823 142.961C71.7461 142.347 71.3345 141.107 70.6624 140.715C69.9966 140.327 68.0955 140.309 67.2712 140.277C63.404 140.125 63.4474 144.628 64.0741 146.886Z" fill="#FBBEBE"/>
<path d="M68.3589 113.18C67.5691 112.835 66.574 112.983 65.8106 113.367C65.0735 113.789 64.4279 114.311 63.9016 114.914C62.195 116.651 60.3883 118.646 60.6414 120.882C60.7363 121.721 61.1212 122.514 61.3822 123.328C62.5264 126.896 61.2611 130.669 61.4063 134.361C61.4902 136.494 62.0466 138.592 62.6007 140.675C62.7137 141.101 62.8949 141.593 63.3879 141.736C63.7583 141.844 64.1584 141.705 64.525 141.589C65.8908 141.168 67.3579 141.027 68.8025 141.179C70.2471 141.331 71.6266 141.771 72.8244 142.462C73.7402 142.054 73.3971 140.765 73.1917 139.916C72.5817 137.394 73.4098 134.792 74.4155 132.36C75.4212 129.928 76.6246 127.499 76.7912 124.929C76.98 122.018 75.823 119.177 74.6815 116.422C74.4323 115.821 74.16 115.19 73.5823 114.774C73.0877 114.468 72.5209 114.252 71.9191 114.141C70.7066 113.842 69.479 113.669 68.3589 113.18Z" fill="#2F2E41"/>
</g>
<defs>
<clipPath id="clip0">
<rect width="360" height="228" fill="white"/>
</clipPath>
</defs>
</svg>
